<?xml version="1.0" encoding="iso-8859-1"?>
<!-- Generator: Adobe Illustrator 19.0.0, SVG Export Plug-In . SVG Version: 6.00 Build 0)  -->
<svg version="1.1" id="Capa_1" xmlns="http://www.w3.org/2000/svg" xmlns:xlink="http://www.w3.org/1999/xlink" x="0px" y="0px"
	 viewBox="0 0 512.001 512.001" style="enable-background:new 0 0 512.001 512.001;" xml:space="preserve">
<g>
	<g>
		<path d="M207.563,122.917h-13.84c-4.142,0-7.499,3.357-7.499,7.499s3.358,7.499,7.499,7.499h13.84
			c4.142,0,7.499-3.357,7.499-7.499S211.704,122.917,207.563,122.917z"/>
	</g>
</g>
<g>
	<g>
		<path d="M286.779,122.917h-13.841c-4.142,0-7.499,3.357-7.499,7.499c0,4.142,3.357,7.499,7.499,7.499h13.841
			c4.142,0,7.499-3.357,7.499-7.499S290.921,122.917,286.779,122.917z"/>
	</g>
</g>
<g>
	<g>
		<path d="M291.649,96.009H188.852c-17.365,0-31.491,14.126-31.491,31.491c0,15.505,11.104,28.574,26.404,31.078l21.651,3.544
			c11.016,1.804,22.115,2.705,33.218,2.705c10.34,0,20.685-0.782,30.961-2.346l27.024-4.114v-0.001
			c15.369-2.34,26.522-15.321,26.522-30.866C323.141,110.135,309.013,96.009,291.649,96.009z M294.361,143.537l-27.024,4.115
			c-19.758,3.007-39.777,2.897-59.498-0.332l-21.652-3.545c-8.012-1.311-13.827-8.156-13.827-16.276
			c0-9.093,7.398-16.492,16.492-16.492h102.798c9.094,0,16.493,7.398,16.493,16.492
			C308.141,135.577,302.346,142.321,294.361,143.537z"/>
	</g>
</g>
<g>
	<g>
		<path d="M481.644,231.879C481.644,231.878,481.644,231.878,481.644,231.879l-17.803-15.461
			c-5.562-4.826-13.915-4.436-19.014,0.895c-10.236,10.693-21.304,20.278-33.018,28.617v-11.631
			c0-10.847-3.855-21.387-10.857-29.676c-4.403-5.212-6.828-12.107-6.828-19.415V111.68c0-4.142-3.357-7.499-7.499-7.499
			s-7.499,3.357-7.499,7.499v22.203h-7.416V38.723h5.75c0.919,0,1.667,0.747,1.667,1.666v35.983c0,4.142,3.357,7.499,7.499,7.499
			s7.499-3.357,7.499-7.499V40.39c0-8.598-6.546-15.695-14.918-16.572c0,0,0,0,0.001,0V7.499c0-4.142-3.357-7.499-7.499-7.499
			c-4.142,0-7.499,3.357-7.499,7.499v16.225c-4.142,0-7.499,3.357-7.499,7.499v105.085c-3.022,2.242-4.993,5.824-4.993,9.867
			v110.047c-7.152-3.484-14.782-6.698-21.813-9.658c-5.144-2.166-10.114-4.26-14.398-6.246
			c22.199-28.362,33.592-63.882,33.592-81.27v-51.34c0-30.301-12.611-58.54-34.601-77.474c-21.521-18.53-46.472-28.081-74.161-28.39
			c-0.056-0.002-0.112-0.002-0.168,0c-27.691,0.311-52.643,9.862-74.163,28.392c-21.99,18.934-34.601,47.172-34.601,77.474v51.34
			c0,17.388,11.393,52.909,33.593,81.271c-4.283,1.986-9.253,4.079-14.396,6.244c-18.425,7.754-39.308,16.545-48.342,28.36
			c-8.147,10.655-10.157,26.001-5.532,39.041l-2.162,0.402c-0.252,0.047-0.502,0.106-0.748,0.18
			c-19.843,5.842-36.881,17.687-49.271,34.25c-12.39,16.565-18.94,36.253-18.94,56.939v9.455c0,4.142,3.358,7.499,7.499,7.499
			c4.141,0,7.499-3.357,7.499-7.499v-9.455c0-17.422,5.516-34.003,15.951-47.954c10.36-13.851,24.578-23.782,41.137-28.74
			l8.109-1.507c4.181,3.779,9.913,7.582,17.346,11.518c0.069,0.036,0.136,0.073,0.205,0.109c0.589,0.311,1.188,0.623,1.798,0.936
			c0.391,0.2,0.792,0.402,1.191,0.603c0.644,0.323,1.293,0.648,1.96,0.973c0.698,0.342,1.407,0.684,2.13,1.027
			c0.329,0.156,0.66,0.313,0.994,0.469c1.02,0.479,2.055,0.958,3.124,1.441c33.591,15.177,69.642,22.764,105.703,22.762
			c36.052-0.002,72.118-7.588,105.702-22.761c0.935-0.422,1.85-0.845,2.752-1.266c0.221-0.103,0.436-0.206,0.654-0.309
			c0.683-0.322,1.357-0.643,2.019-0.964c0.11-0.054,0.226-0.107,0.336-0.161v21.739c0,8.021,5.606,14.757,13.106,16.495
			l15.596,116.854l-0.001,0H101.886v-53.345c0-4.142-3.358-7.499-7.499-7.499c-4.141,0-7.499,3.357-7.499,7.499v53.345H44.672
			c-2.243,0-4.067-1.824-4.067-4.066v-42.41c0-4.142-3.358-7.499-7.499-7.499s-7.499,3.357-7.499,7.499v42.41
			c0,10.513,8.553,19.066,19.066,19.066H435.83l-31.533-8.535L435.83,512c10.513,0,19.067-8.552,19.067-19.066v-87.198
			c0-9.194-1.301-18.177-3.863-26.849c4.605-0.722,8.684-3.884,10.337-8.578l4.65-13.193c1.161-3.297,0.969-6.847-0.541-9.998
			c-1.51-3.151-4.156-5.526-7.452-6.687l-20.52-7.23c0.558-1.924,0.864-3.933,0.864-5.995v-26.678c0-3.323-0.765-6.475-2.122-9.295
			c16.619-11.257,32.141-24.447,46.369-39.449c2.571-2.713,3.942-6.413,3.76-10.15C486.197,237.889,484.471,234.334,481.644,231.879
			z M146.404,159.049v-51.34c0-25.931,10.711-50.026,29.388-66.106c18.747-16.141,40.432-24.471,64.458-24.758
			c24.025,0.287,45.711,8.617,64.458,24.758c18.677,16.082,29.388,40.177,29.388,66.106v51.34c0,11.353-7.541,38.614-24.309,63.674
			c-3.276,4.896-7.124,10.02-11.545,14.972c-0.009,0.01-0.02,0.02-0.029,0.03c-4.385,4.9-9.043,9.275-13.846,13.002
			c-0.097,0.076-0.184,0.162-0.277,0.241c-11.874,9.149-26.453,15.732-43.841,15.732c-17.377,0-31.947-6.574-43.818-15.715
			c-0.099-0.086-0.192-0.177-0.296-0.258c-4.801-3.726-9.46-8.101-13.846-13.003c-0.018-0.02-0.038-0.038-0.057-0.058
			c-4.411-4.942-8.251-10.056-11.52-14.944C153.947,197.664,146.404,170.402,146.404,159.049z M293.06,308.646
			c-14.54,11.028-32.185,17.241-50.667,17.687c-0.478,0.013-0.956,0.008-1.435,0.006l-0.706-0.002l-0.706,0.002
			c-0.478,0.002-0.957,0.007-1.433-0.006c-18.483-0.446-36.128-6.658-50.668-17.687c7.354-6.405,11.593-16.565,11.593-25.39v-12.647
			c12.153,6.893,25.899,11.09,41.213,11.09c15.315,0,29.061-4.199,41.216-11.092v12.649
			C281.466,292.081,285.706,302.241,293.06,308.646z M339.778,330.945c-63.251,28.574-135.803,28.574-199.053-0.001
			c-0.625-0.282-1.233-0.561-1.831-0.838c-0.166-0.077-0.328-0.152-0.491-0.229c-0.454-0.211-0.901-0.421-1.34-0.629
			c-0.147-0.07-0.295-0.14-0.441-0.209c-1.163-0.555-2.274-1.099-3.33-1.629c-0.051-0.026-0.1-0.051-0.151-0.076
			c-0.49-0.247-0.969-0.491-1.437-0.733c-0.062-0.032-0.124-0.064-0.186-0.096c-1.56-0.809-2.997-1.587-4.319-2.335
			c-0.009-0.005-0.017-0.01-0.026-0.015c-1.332-0.754-2.547-1.476-3.657-2.167c-0.026-0.017-0.052-0.033-0.078-0.049
			c-0.327-0.204-0.644-0.405-0.953-0.604c-0.046-0.03-0.093-0.06-0.138-0.089c-0.326-0.211-0.644-0.419-0.95-0.624
			c-0.004-0.003-0.009-0.006-0.013-0.009c-0.289-0.193-0.566-0.382-0.837-0.569c-0.13-0.09-0.256-0.178-0.383-0.267
			c-0.121-0.085-0.241-0.169-0.359-0.253c-0.166-0.118-0.33-0.236-0.49-0.352c-0.04-0.029-0.079-0.058-0.118-0.086
			c-2.514-1.841-4.175-3.384-5.271-4.62c-0.042-0.048-0.091-0.087-0.134-0.133c-0.764-0.877-1.216-1.568-1.48-2.067
			c-4.676-8.828-3.892-20.702,1.864-28.229c6.612-8.649,26.37-16.966,42.245-23.647c6.817-2.87,13.357-5.622,18.761-8.321
			c2.869,2.924,5.83,5.657,8.858,8.176v23.012c0,7.495-5.369,15.4-11.264,16.586c-2.732,0.549-4.934,2.568-5.718,5.243
			c-0.784,2.674-0.02,5.562,1.983,7.499c18.52,17.914,42.923,28.121,68.714,28.744c0.621,0.014,1.244,0.013,1.865,0.01l0.635-0.002
			l0.635,0.002c0.621,0.002,1.243,0.004,1.867-0.01c25.79-0.623,50.193-10.83,68.712-28.744c2.004-1.937,2.767-4.826,1.983-7.499
			c-0.784-2.675-2.986-4.694-5.718-5.243c-5.895-1.185-11.264-9.09-11.264-16.586v-23.012c3.028-2.519,5.99-5.253,8.858-8.176
			c5.404,2.699,11.941,5.452,18.758,8.321c9.126,3.843,19.311,8.131,27.633,12.702v51.956h0
			C348.196,326.971,344.202,328.946,339.778,330.945z M411.808,305.965c3.872-2.06,7.698-4.211,11.471-6.464
			c0.053,0.336,0.094,0.676,0.094,1.026v26.678c0,0.334-0.032,0.662-0.08,0.986l-11.484-4.047v-18.179H411.808z M368.645,365.584
			c-1.064,0-1.931-0.866-1.931-1.931V148.884h12.409v36.324c0,10.845,3.682,21.178,10.368,29.093
			c4.717,5.586,7.316,12.688,7.316,19.999v131.284h-25.363H368.645z M398.836,380.583l25.387,79.23l-32.474,8.708l-11.737-87.938
			H398.836z M395.508,496.682l-1.757-13.169l35.055-9.4l4.025,12.561L395.508,496.682z M411.808,371.911v-5.194l21.674,7.637
			c4.254,9.949,6.414,20.491,6.414,31.383v53.835L411.808,371.911z M451.236,353.939l-3.375,9.577l-36.052-12.703v-10.767
			L451.236,353.939z M411.808,288.84v-24.778c15.425-9.97,29.891-21.914,43.069-35.561l15.982,13.879
			C453.119,260.918,433.301,276.504,411.808,288.84z"/>
	</g>
</g>
<g>
</g>
<g>
</g>
<g>
</g>
<g>
</g>
<g>
</g>
<g>
</g>
<g>
</g>
<g>
</g>
<g>
</g>
<g>
</g>
<g>
</g>
<g>
</g>
<g>
</g>
<g>
</g>
<g>
</g>
</svg>
